<?xml version="1.0" encoding="utf-8"?><svg viewBox="0 0 14 14" xmlns="http://www.w3.org/2000/svg" xmlns:xlink="http://www.w3.org/1999/xlink"><style>:root>svg{display:none}:root>svg:target{display:block}</style><svg fill="none" viewBox="0 0 7 14" id="arrow-left" xmlns="http://www.w3.org/2000/svg"><path d="M6.778 12.81a.633.633 0 01-.963.08L.632 7.706a1 1 0 010-1.414L5.965.96a.535.535 0 01.767.746L2.386 6.293a1 1 0 00.019 1.395l4.305 4.306a.633.633 0 01.068.816z" fill="#A7A7A7"/></svg><svg fill="none" viewBox="0 0 7 14" id="arrow-right" xmlns="http://www.w3.org/2000/svg"><path d="M.222 12.81a.633.633 0 00.963.08l5.183-5.183a1 1 0 000-1.414L1.035.96a.535.535 0 00-.767.746l4.346 4.587a1 1 0 01-.019 1.395L.29 11.994a.633.633 0 00-.068.816z" fill="#A7A7A7"/></svg><svg fill="none" viewBox="0 0 14 14" id="close_pic" xmlns="http://www.w3.org/2000/svg"><path d="M1 1l12 12m0-12L1 13" stroke="#000" stroke-width="1.25" stroke-linecap="round"/></svg></svg>