<svg width="16" height="10" viewBox="0 0 16 10" fill="none" xmlns="http://www.w3.org/2000/svg">
<mask id="path-1-inside-1_177_677" fill="white">
<path d="M0.500006 10C0.358007 10 0.23934 9.95414 0.144007 9.86242C0.0486735 9.77069 0.000673515 9.65778 6.8493e-06 9.52367C-0.000659817 9.38957 0.0473402 9.27697 0.144007 9.18588C0.240673 9.09479 0.35934 9.04956 0.500006 9.05019H15.5C15.642 9.05019 15.7607 9.09574 15.856 9.18683C15.952 9.27792 16 9.39083 16 9.52557C16 9.66031 15.952 9.77291 15.856 9.86336C15.76 9.95382 15.6413 9.99905 15.5 9.99905L0.500006 10ZM0.500006 5.47395C0.358007 5.47395 0.23934 5.42841 0.144007 5.33732C0.0486735 5.24623 0.000673515 5.13331 6.8493e-06 4.99858C-0.000659817 4.86384 0.0473402 4.75124 0.144007 4.66078C0.240673 4.57033 0.35934 4.5251 0.500006 4.5251H15.5C15.642 4.5251 15.7607 4.57064 15.856 4.66173C15.9513 4.75282 15.9993 4.86574 16 5.00047C16.0007 5.13521 15.9527 5.24781 15.856 5.33827C15.7593 5.42873 15.6407 5.47395 15.5 5.47395H0.500006ZM0.500006 0.947908C0.358007 0.947908 0.23934 0.902679 0.144007 0.812221C0.0480069 0.721131 6.8493e-06 0.608217 6.8493e-06 0.47348C6.8493e-06 0.338742 0.0480069 0.226144 0.144007 0.135687C0.240007 0.045229 0.358673 0 0.500006 0H15.5C15.642 0 15.7607 0.0455452 15.856 0.136635C15.9513 0.227726 15.9993 0.340007 16 0.47348C16.0007 0.606952 15.9527 0.71955 15.856 0.811272C15.7593 0.902995 15.6407 0.94854 15.5 0.947908H0.500006Z"/>
</mask>
<path d="M0.500006 10V11H0.50007L0.500006 10ZM0.500006 9.05019L0.495509 10.0502H0.500006V9.05019ZM15.856 9.18683L15.1652 9.90985L15.1677 9.91224L15.856 9.18683ZM15.5 9.99905V8.99905H15.4999L15.5 9.99905ZM16 5.00047L15 5.00542L16 5.00047ZM0.500006 0V1V0ZM16 0.47348L15 0.478474L16 0.47348ZM15.5 0.947908L15.5045 -0.0520922H15.5V0.947908ZM0.500006 10V9C0.538019 9 0.596741 9.00646 0.664996 9.03284C0.734545 9.05972 0.793147 9.09928 0.837336 9.1418L0.144007 9.86242L-0.549323 10.583C-0.253176 10.868 0.120328 11 0.500006 11V10ZM0.144007 9.86242L0.837336 9.1418C0.87906 9.18194 0.924091 9.24076 0.956804 9.31772C0.989395 9.39438 0.99973 9.46542 0.999995 9.5187L6.8493e-06 9.52367L-0.999981 9.52864C-0.997992 9.92875 -0.842348 10.3011 -0.549323 10.583L0.144007 9.86242ZM6.8493e-06 9.52367L0.999995 9.5187C1.00027 9.57496 0.989842 9.65002 0.955407 9.7308C0.920879 9.8118 0.873176 9.8728 0.82981 9.91367L0.144007 9.18588L-0.541797 8.45809C-0.842446 8.7414 -1.00201 9.12034 -0.999981 9.52864L6.8493e-06 9.52367ZM0.144007 9.18588L0.82981 9.91367C0.787301 9.95372 0.730269 9.99192 0.661662 10.0181C0.594084 10.0438 0.535161 10.0504 0.49551 10.0502L0.500006 9.05019L0.504503 8.0502C0.124025 8.04849 -0.246657 8.17998 -0.541797 8.45809L0.144007 9.18588ZM0.500006 9.05019V10.0502H15.5V9.05019V8.05019H0.500006V9.05019ZM15.5 9.05019V10.0502C15.4628 10.0502 15.4048 10.0439 15.3372 10.018C15.2682 9.99147 15.2096 9.95234 15.1652 9.90984L15.856 9.18683L16.5468 8.46382C16.2503 8.18048 15.8776 8.05019 15.5 8.05019V9.05019ZM15.856 9.18683L15.1677 9.91224C15.1242 9.87097 15.0774 9.81037 15.0437 9.73105C15.0101 9.65213 15 9.57937 15 9.52557H16H17C17 9.12214 16.8433 8.74516 16.5443 8.46142L15.856 9.18683ZM16 9.52557H15C15 9.47182 15.0101 9.39858 15.0441 9.31892C15.0783 9.23879 15.1258 9.17745 15.1702 9.13556L15.856 9.86336L16.5418 10.5912C16.8431 10.3072 17 9.92914 17 9.52557H16ZM15.856 9.86336L15.1702 9.13556C15.2137 9.09454 15.2711 9.05652 15.3388 9.0307C15.4054 9.00534 15.4626 8.99905 15.5 8.99905V9.99905V10.9991C15.8763 10.9991 16.2462 10.8697 16.5418 10.5912L15.856 9.86336ZM15.5 9.99905L15.4999 8.99905L0.499943 9L0.500006 10L0.50007 11L15.5001 10.9991L15.5 9.99905ZM0.500006 5.47395V4.47395C0.537215 4.47395 0.595173 4.48023 0.662829 4.5062C0.731819 4.53268 0.790367 4.57181 0.834841 4.61431L0.144007 5.33732L-0.546827 6.06033C-0.250296 6.34367 0.122395 6.47395 0.500006 6.47395V5.47395ZM0.144007 5.33732L0.834841 4.61431C0.877981 4.65552 0.923774 4.7154 0.956804 4.7931C0.989638 4.87033 0.999736 4.94133 0.999995 4.99363L6.8493e-06 4.99858L-0.999981 5.00352C-0.998005 5.40296 -0.843167 5.77718 -0.546827 6.06033L0.144007 5.33732ZM6.8493e-06 4.99858L0.999995 4.99363C1.00027 5.04887 0.990086 5.12388 0.955408 5.20523C0.920556 5.28698 0.872075 5.34903 0.827275 5.39095L0.144007 4.66078L-0.539262 3.93062C-0.843306 4.21513 -1.002 4.59595 -0.999981 5.00352L6.8493e-06 4.99858ZM0.144007 4.66078L0.827275 5.39095C0.784953 5.43055 0.728719 5.46789 0.661656 5.49345C0.595642 5.51861 0.538315 5.5251 0.500006 5.5251V4.5251V3.5251C0.123019 3.5251 -0.244981 3.65524 -0.539262 3.93062L0.144007 4.66078ZM0.500006 4.5251V5.5251H15.5V4.5251V3.5251H0.500006V4.5251ZM15.5 4.5251V5.5251C15.4628 5.5251 15.4048 5.51882 15.3372 5.49285C15.2682 5.46638 15.2096 5.42724 15.1652 5.38475L15.856 4.66173L16.5468 3.93872C16.2503 3.65538 15.8776 3.5251 15.5 3.5251V4.5251ZM15.856 4.66173L15.1652 5.38475C15.122 5.34353 15.0762 5.28366 15.0432 5.20596C15.0104 5.12872 15.0003 5.05772 15 5.00542L16 5.00047L17 4.99553C16.998 4.59609 16.8432 4.22187 16.5468 3.93872L15.856 4.66173ZM16 5.00047L15 5.00542C14.9997 4.95018 15.0099 4.87517 15.0446 4.79383C15.0794 4.71207 15.1279 4.65002 15.1727 4.6081L15.856 5.33827L16.5393 6.06843C16.8433 5.78392 17.002 5.4031 17 4.99553L16 5.00047ZM15.856 5.33827L15.1727 4.6081C15.215 4.5685 15.2713 4.53116 15.3383 4.5056C15.4044 4.48044 15.4617 4.47395 15.5 4.47395V5.47395V6.47395C15.877 6.47395 16.245 6.34382 16.5393 6.06843L15.856 5.33827ZM15.5 5.47395V4.47395H0.500006V5.47395V6.47395H15.5V5.47395ZM0.500006 0.947908V-0.0520922C0.536412 -0.0520922 0.593606 -0.0459986 0.660657 -0.0204424C0.729081 0.00563688 0.787568 0.0443445 0.83232 0.086808L0.144007 0.812221L-0.544307 1.53763C-0.247406 1.81935 0.124456 1.94791 0.500006 1.94791V0.947908ZM0.144007 0.812221L0.83232 0.086808C0.875821 0.128084 0.922585 0.188677 0.956304 0.267997C0.989854 0.346921 1.00001 0.419683 1.00001 0.47348H6.8493e-06H-0.999993C-0.999993 0.876911 -0.843347 1.25389 -0.544307 1.53763L0.144007 0.812221ZM6.8493e-06 0.47348H1.00001C1.00001 0.527236 0.989865 0.600472 0.955908 0.680129C0.921748 0.76026 0.874247 0.821602 0.829793 0.86349L0.144007 0.135687L-0.541779 -0.592117C-0.843134 -0.30816 -0.999993 0.0699119 -0.999993 0.47348H6.8493e-06ZM0.144007 0.135687L0.829793 0.86349C0.786257 0.904513 0.728902 0.94253 0.661157 0.96835C0.594623 0.993709 0.537363 1 0.500006 1V0V-1C0.123725 -1 -0.246185 -0.870646 -0.541779 -0.592117L0.144007 0.135687ZM0.500006 0V1H15.5V0V-1H0.500006V0ZM15.5 0V1C15.4628 1 15.4048 0.993724 15.3372 0.967757C15.2682 0.941279 15.2096 0.902144 15.1652 0.859649L15.856 0.136635L16.5468 -0.586378C16.2503 -0.869713 15.8776 -1 15.5 -1V0ZM15.856 0.136635L15.1652 0.859649C15.123 0.819337 15.0773 0.760059 15.044 0.682249C15.0108 0.604699 15.0003 0.532677 15 0.478474L16 0.47348L17 0.468485C16.998 0.067403 16.8411 -0.305227 16.5468 -0.586378L15.856 0.136635ZM16 0.47348L15 0.478474C14.9997 0.421201 15.0104 0.346082 15.0446 0.265881C15.0788 0.185645 15.1257 0.125667 15.1677 0.0858592L15.856 0.811272L16.5443 1.53669C16.8416 1.2546 17.002 0.877499 17 0.468485L16 0.47348ZM15.856 0.811272L15.1677 0.0858592C15.2099 0.0457794 15.267 0.00716844 15.3362 -0.0193751C15.4043 -0.0455403 15.464 -0.052264 15.5045 -0.0520821L15.5 0.947908L15.4955 1.9479C15.878 1.94962 16.2495 1.81638 16.5443 1.53669L15.856 0.811272ZM15.5 0.947908V-0.0520922H0.500006V0.947908V1.94791H15.5V0.947908Z" fill="black" mask="url(#path-1-inside-1_177_677)"/>
</svg>
